<?xml version="1.0" encoding="UTF-8"?><svg id="Layer_1" xmlns="http://www.w3.org/2000/svg" viewBox="0 0 424.92 387.32"><defs><style>.cls-1{fill:#f9ec23;}.cls-2{fill:#151b1d;}</style></defs><rect class="cls-1" x="0" y="0" width="424.92" height="387.32"/><path class="cls-2" d="m196.43,190.6c11.37,20.17,30.47,23.23,50.77,22.28,10.6-.49,18.13,3.83,25.9,10.27,5.07,4.21,11.98,7.57,18.43,8.36,7.36.91,14.27-2.87,17.22-10.82,3.47-9.35,2.04-18.02-4.97-25.16-19.06-19.42-38.31-38.64-57.51-57.91-11.28-11.33-11.96-12.77-12.53-28.98-49.31,21.59-97.54,43.89-145.56,72.11,3.48-15.97,6.83-29.93,9.53-44.02,4.6-23.99,18.61-39.1,42.05-45.35,4.43-1.18,9.26-1.19,13.91-1.2,43.31-.08,86.62-.11,129.93,0,36.51.08,58.72,26.39,51.88,62.52-6.4,33.77-13.57,67.41-21.15,100.94-6.13,27.12-27.25,43.36-55.07,43.52-19.15.11-38.31.01-57.46-.2-1.73-.02-4.13-1.11-5.07-2.48-20.78-30.28-24.57-74.36-.31-103.87Z"/></svg>