<?xml version="1.0" encoding="UTF-8"?>
<!DOCTYPE svg PUBLIC "-//W3C//DTD SVG 1.1//EN" "http://www.w3.org/Graphics/SVG/1.1/DTD/svg11.dtd">
<svg xmlns="http://www.w3.org/2000/svg" version="1.1" width="3334px" height="813px" style="shape-rendering:geometricPrecision; text-rendering:geometricPrecision; image-rendering:optimizeQuality; fill-rule:evenodd; clip-rule:evenodd" xmlns:xlink="http://www.w3.org/1999/xlink">
<g><path style="opacity:0.993" fill="#fefffe" d="M 659.5,285.5 C 703.831,286.122 748.164,286.622 792.5,287C 775.879,365.77 759.379,444.603 743,523.5C 714.905,524.661 686.739,524.828 658.5,524C 663.167,502 667.833,480 672.5,458C 657.5,457.833 642.5,457.667 627.5,457.5C 611.744,457.348 596.078,457.848 580.5,459C 564.572,477.591 549.405,496.758 535,516.5C 532.131,519.704 528.965,522.537 525.5,525C 494.495,525.833 463.495,525.667 432.5,524.5C 484.183,457.138 536.35,390.138 589,323.5C 607.546,301.48 631.046,288.813 659.5,285.5 Z M 694.5,342.5 C 695.239,342.369 695.906,342.536 696.5,343C 692.751,359.074 689.251,375.241 686,391.5C 685.771,394.458 684.604,396.958 682.5,399C 672.904,400.128 663.237,400.628 653.5,400.5C 644.591,400.493 635.758,400.16 627,399.5C 637.865,383.272 650.365,368.105 664.5,354C 673.575,347.479 683.575,343.646 694.5,342.5 Z"/></g>
<g><path style="opacity:0.991" fill="#fefffe" d="M 823.5,285.5 C 887.834,285.333 952.168,285.5 1016.5,286C 1046.58,288.743 1064.74,304.91 1071,334.5C 1071.67,339.5 1071.67,344.5 1071,349.5C 1062.77,393.327 1053.77,436.993 1044,480.5C 1037.28,503.89 1022.11,518.39 998.5,524C 921.841,525.763 845.175,525.929 768.5,524.5C 784.804,448.947 800.638,373.28 816,297.5C 816.292,291.877 818.792,287.877 823.5,285.5 Z M 895.5,342.5 C 916.169,342.333 936.836,342.5 957.5,343C 976.083,345.314 984.25,355.814 982,374.5C 977.316,397.903 972.316,421.236 967,444.5C 965.189,455.639 959.022,463.139 948.5,467C 920.856,468.387 893.189,468.887 865.5,468.5C 873.298,427.343 881.798,386.343 891,345.5C 892.409,344.219 893.909,343.219 895.5,342.5 Z"/></g>
<g><path style="opacity:0.991" fill="#fefffe" d="M 1115.5,285.5 C 1179.83,285.333 1244.17,285.5 1308.5,286C 1334.31,287.976 1351.65,301.142 1360.5,325.5C 1361.91,331.091 1362.91,336.758 1363.5,342.5C 1355.55,388.41 1346.38,434.076 1336,479.5C 1329.07,502.765 1313.9,517.598 1290.5,524C 1213.85,525.463 1137.18,525.963 1060.5,525.5C 1076.66,447.514 1092.83,369.514 1109,291.5C 1110.44,288.558 1112.6,286.558 1115.5,285.5 Z M 1186.5,342.5 C 1209.54,342.064 1232.54,342.564 1255.5,344C 1271.52,350.197 1277.35,361.697 1273,378.5C 1267.92,402.557 1262.59,426.557 1257,450.5C 1254.17,458.667 1248.67,464.167 1240.5,467C 1212.52,468.555 1184.52,468.889 1156.5,468C 1164.97,427.145 1173.64,386.312 1182.5,345.5C 1183.9,344.479 1185.23,343.479 1186.5,342.5 Z"/></g>
<g><path style="opacity:0.988" fill="#fefffe" d="M 1442.5,285.5 C 1499.19,285.042 1555.85,285.542 1612.5,287C 1643.31,293.481 1659.31,312.481 1660.5,344C 1653.18,388.79 1644.34,433.29 1634,477.5C 1626.07,505.103 1607.9,520.936 1579.5,525C 1553.5,525.667 1527.5,525.667 1501.5,525C 1498.67,523.5 1496.5,521.333 1495,518.5C 1476.96,488.023 1473.62,456.023 1485,422.5C 1488.08,414.662 1492.41,407.662 1498,401.5C 1507.17,416.68 1520.67,425.18 1538.5,427C 1548.89,427.1 1559.23,427.767 1569.5,429C 1578.28,432.782 1586.28,437.782 1593.5,444C 1613.47,454.017 1625.47,448.017 1629.5,426C 1628.84,420.692 1627.01,415.859 1624,411.5C 1598.69,385.195 1573.03,359.195 1547,333.5C 1542.23,325.911 1539.9,317.578 1540,308.5C 1482.78,332.859 1427.28,360.525 1373.5,391.5C 1373.17,391 1372.83,390.5 1372.5,390C 1377.18,371.283 1381.34,352.45 1385,333.5C 1393.96,305.124 1413.12,289.124 1442.5,285.5 Z"/></g>
<g><path style="opacity:0.993" fill="#fefffe" d="M 1741.5,285.5 C 1814.5,285.815 1887.5,286.149 1960.5,286.5C 1957.09,305.215 1953.42,323.882 1949.5,342.5C 1893.8,342.025 1838.13,342.525 1782.5,344C 1774.42,346.123 1768.59,350.957 1765,358.5C 1758.06,384.27 1752.06,410.27 1747,436.5C 1745.18,455.345 1753.68,465.845 1772.5,468C 1822.5,468.5 1872.5,468.667 1922.5,468.5C 1919.07,487.481 1915.07,506.314 1910.5,525C 1844.17,525.667 1777.83,525.667 1711.5,525C 1684.33,522.825 1667.17,508.658 1660,482.5C 1658.48,473.219 1658.15,463.886 1659,454.5C 1667.16,413.058 1675.82,371.725 1685,330.5C 1694.56,303.763 1713.4,288.763 1741.5,285.5 Z"/></g>
<g><path style="opacity:0.99" fill="#fefffe" d="M 2183.5,285.5 C 2214.84,285.167 2246.17,285.5 2277.5,286.5C 2229.34,326.492 2181,366.326 2132.5,406C 2164.4,444.734 2195.74,483.9 2226.5,523.5C 2225.62,524.251 2224.62,524.751 2223.5,525C 2208,525.167 2192.5,525.333 2177,525.5C 2160.44,525.645 2143.94,525.145 2127.5,524C 2124.73,522.533 2122.23,520.7 2120,518.5C 2104.09,497.255 2087.43,476.588 2070,456.5C 2064.12,462.186 2057.62,467.02 2050.5,471C 2036.95,484.614 2029.79,501.114 2029,520.5C 2028.53,521.931 2027.7,523.097 2026.5,524C 1998.92,525.483 1971.26,525.983 1943.5,525.5C 1959.78,446.088 1976.45,366.755 1993.5,287.5C 2021.83,286.5 2050.16,286.167 2078.5,286.5C 2072.13,318.182 2065.96,349.849 2060,381.5C 2098.25,349.242 2137.09,317.742 2176.5,287C 2179.04,286.814 2181.37,286.314 2183.5,285.5 Z"/></g>
<g><path style="opacity:0.992" fill="#f8ec22" d="M 2305.5,285.5 C 2371.5,286.09 2437.5,286.59 2503.5,287C 2539.83,295.36 2556,318.193 2552,355.5C 2550.27,368.8 2547.27,381.8 2543,394.5C 2540.09,401.324 2536.42,407.658 2532,413.5C 2532.57,426.468 2532.57,439.468 2532,452.5C 2530.59,477.143 2520.76,497.643 2502.5,514C 2494.21,520.211 2484.87,523.878 2474.5,525C 2400.13,525.83 2325.79,525.663 2251.5,524.5C 2266.8,446.168 2282.97,367.834 2300,289.5C 2301.5,287.531 2303.33,286.198 2305.5,285.5 Z M 2396.5,341.5 C 2418.18,341.391 2439.85,341.891 2461.5,343C 2465.8,344.964 2468.13,348.298 2468.5,353C 2467.64,360.29 2465.47,367.123 2462,373.5C 2459.21,375.646 2456.04,376.813 2452.5,377C 2423.48,377.16 2394.48,376.66 2365.5,375.5C 2367.47,364.808 2369.64,354.141 2372,343.5C 2380.27,342.847 2388.43,342.18 2396.5,341.5 Z M 2357.5,433.5 C 2385.84,433.333 2414.17,433.5 2442.5,434C 2447.03,435.702 2449.36,439.036 2449.5,444C 2448.83,448.2 2447.99,452.367 2447,456.5C 2445.68,463.484 2441.52,467.317 2434.5,468C 2405.17,468.5 2375.84,468.667 2346.5,468.5C 2347.88,458.76 2349.71,449.093 2352,439.5C 2353.36,436.977 2355.19,434.977 2357.5,433.5 Z"/></g>
<g><path style="opacity:0.991" fill="#f8ec22" d="M 2628.5,285.5 C 2702.83,286.312 2777.16,286.646 2851.5,286.5C 2848.24,303.952 2844.41,321.285 2840,338.5C 2838.58,339.46 2837.08,340.293 2835.5,341C 2781.81,341.852 2728.14,342.852 2674.5,344C 2663.11,346.388 2655.95,353.221 2653,364.5C 2651.98,368.44 2651.48,372.44 2651.5,376.5C 2702.5,376.5 2753.5,376.5 2804.5,376.5C 2801.32,393.555 2797.82,410.555 2794,427.5C 2792.89,429.815 2791.06,431.315 2788.5,432C 2743.51,433.224 2698.51,433.891 2653.5,434C 2637.16,432.004 2632.33,438.504 2639,453.5C 2642.45,460.478 2647.95,464.978 2655.5,467C 2708.14,468.136 2760.81,468.969 2813.5,469.5C 2809.5,487.833 2805.5,506.167 2801.5,524.5C 2734.84,525.667 2668.17,525.833 2601.5,525C 2567.39,520.221 2550.39,500.554 2550.5,466C 2550.52,456.036 2551.69,446.202 2554,436.5C 2561,402.833 2568,369.167 2575,335.5C 2582.75,307.913 2600.58,291.246 2628.5,285.5 Z"/></g>
<g><path style="opacity:0.993" fill="#fefffe" d="M 246.5,286.5 C 316.198,286.02 385.865,286.52 455.5,288C 487.055,297.93 501.555,319.43 499,352.5C 494.946,374.717 489.946,396.717 484,418.5C 474.176,438.978 458.009,451.145 435.5,455C 389.833,455.333 344.167,455.667 298.5,456C 295.906,457.339 294.406,459.506 294,462.5C 290.383,480.918 286.383,499.252 282,517.5C 281.31,520.196 279.81,522.363 277.5,524C 250.835,524.5 224.169,524.667 197.5,524.5C 213.833,445.167 230.167,365.833 246.5,286.5 Z M 352.5,342.5 C 365.497,343 378.497,343.5 391.5,344C 403.844,347.645 410.511,355.978 411.5,369C 409.976,385.19 401.31,395.19 385.5,399C 359.502,399.5 333.502,399.667 307.5,399.5C 310.607,381.299 314.607,363.299 319.5,345.5C 320.5,345 321.5,344.5 322.5,344C 332.675,343.83 342.675,343.33 352.5,342.5 Z"/></g>
<g><path style="opacity:0.995" fill="#f8ec22" d="M 2868.5,286.5 C 2957.5,286.333 3046.5,286.5 3135.5,287C 3131.63,305.362 3127.63,323.695 3123.5,342C 3094.17,342.333 3064.83,342.667 3035.5,343C 3033.71,343.785 3032.21,344.951 3031,346.5C 3018.36,405.553 3005.52,464.553 2992.5,523.5C 2965.17,524.5 2937.84,524.833 2910.5,524.5C 2922.83,463.833 2935.17,403.167 2947.5,342.5C 2917.5,342.5 2887.5,342.5 2857.5,342.5C 2860.65,323.727 2864.32,305.06 2868.5,286.5 Z"/></g>
</svg>
