<?xml version="1.0" encoding="UTF-8"?>
<!DOCTYPE svg PUBLIC "-//W3C//DTD SVG 1.1//EN" "http://www.w3.org/Graphics/SVG/1.1/DTD/svg11.dtd">
<svg xmlns="http://www.w3.org/2000/svg" version="1.1" width="3334px" height="813px" style="shape-rendering:geometricPrecision; text-rendering:geometricPrecision; image-rendering:optimizeQuality; fill-rule:evenodd; clip-rule:evenodd" xmlns:xlink="http://www.w3.org/1999/xlink">
<g><path style="opacity:0.991" fill="#f8ec22" d="M 246.5,286.5 C 311.834,286.333 377.168,286.5 442.5,287C 478.241,290.24 497.241,309.74 499.5,345.5C 496.213,371.313 490.713,396.647 483,421.5C 472.07,441.555 455.236,453.055 432.5,456C 387.5,456.333 342.5,456.667 297.5,457C 295.513,458.319 294.346,460.152 294,462.5C 290.511,481.276 286.511,499.943 282,518.5C 281.31,521.196 279.81,523.363 277.5,525C 250.835,525.5 224.169,525.667 197.5,525.5C 213.705,445.806 230.039,366.139 246.5,286.5 Z M 326.5,343.5 C 346.169,343.333 365.836,343.5 385.5,344C 405.581,346.986 413.748,358.486 410,378.5C 406.43,389.069 399.263,395.903 388.5,399C 361.543,400.456 334.543,400.956 307.5,400.5C 310.696,382.381 314.529,364.381 319,346.5C 321.48,345.188 323.98,344.188 326.5,343.5 Z"/></g>
<g><path style="opacity:0.991" fill="#f8ec22" d="M 656.5,286.5 C 701.863,286.036 747.196,286.536 792.5,288C 775.773,366.747 759.273,445.58 743,524.5C 714.899,525.828 686.733,525.828 658.5,524.5C 663.347,502.599 667.68,480.599 671.5,458.5C 641.831,458.333 612.165,458.5 582.5,459C 578.804,461.203 575.638,464.037 573,467.5C 560,484.5 547,501.5 534,518.5C 531.795,521.04 529.295,523.207 526.5,525C 509.699,526.113 492.866,526.613 476,526.5C 461.5,526.167 447,525.833 432.5,525.5C 485.761,456.07 539.594,387.07 594,318.5C 611.13,300.519 631.964,289.852 656.5,286.5 Z M 691.5,343.5 C 692.833,343.5 694.167,343.5 695.5,343.5C 692.625,362.043 688.792,380.376 684,398.5C 683.25,399.126 682.416,399.626 681.5,400C 665.167,401.326 648.834,401.492 632.5,400.5C 630.5,400.167 628.5,399.833 626.5,399.5C 626.667,399.167 626.833,398.833 627,398.5C 637.789,384.709 648.956,371.209 660.5,358C 669.65,350.422 679.983,345.589 691.5,343.5 Z"/></g>
<g><path style="opacity:0.991" fill="#f8ec22" d="M 822.5,286.5 C 888.834,286.333 955.168,286.5 1021.5,287C 1052.25,293.084 1068.92,311.75 1071.5,343C 1063.75,389.433 1054.58,435.6 1044,481.5C 1036.54,504.624 1021.04,519.124 997.5,525C 921.167,526.989 844.833,526.989 768.5,525C 785.228,446.915 801.728,368.749 818,290.5C 819.397,288.93 820.897,287.596 822.5,286.5 Z M 894.5,343.5 C 916.169,343.333 937.836,343.5 959.5,344C 977.161,347.134 984.661,357.634 982,375.5C 977.128,398.861 972.128,422.195 967,445.5C 964.778,456.816 958.278,464.316 947.5,468C 920.169,468.5 892.835,468.667 865.5,468.5C 873.426,427.703 881.926,387.036 891,346.5C 892.145,345.364 893.312,344.364 894.5,343.5 Z"/></g>
<g><path style="opacity:0.99" fill="#f8ec22" d="M 1113.5,286.5 C 1180.17,286.333 1246.83,286.5 1313.5,287C 1344.21,293.073 1360.88,311.74 1363.5,343C 1355.31,392.259 1345.14,441.093 1333,489.5C 1325.1,507.069 1311.93,518.569 1293.5,524C 1278.88,525.247 1264.21,525.914 1249.5,526C 1186.5,526.5 1123.5,526.667 1060.5,526.5C 1076.39,446.933 1093.23,367.6 1111,288.5C 1111.99,287.934 1112.83,287.267 1113.5,286.5 Z M 1185.5,343.5 C 1207.5,343.333 1229.5,343.5 1251.5,344C 1270.23,348.608 1277.4,360.441 1273,379.5C 1268.13,402.195 1263.13,424.862 1258,447.5C 1255.81,456.357 1250.64,462.857 1242.5,467C 1213.89,468.642 1185.23,468.975 1156.5,468C 1165.04,428.952 1173.21,389.786 1181,350.5C 1181.53,347.415 1183.03,345.082 1185.5,343.5 Z"/></g>
<g><path style="opacity:0.986" fill="#f8ec22" d="M 1438.5,286.5 C 1494.5,286.333 1550.5,286.5 1606.5,287C 1640.16,291.493 1658.16,310.66 1660.5,344.5C 1653.07,390.502 1643.9,436.168 1633,481.5C 1625.33,505.499 1609.17,519.999 1584.5,525C 1557.53,526.593 1530.53,526.927 1503.5,526C 1501.48,525.55 1499.65,524.717 1498,523.5C 1476.67,491.188 1472.67,456.854 1486,420.5C 1489.01,413.812 1493.01,407.812 1498,402.5C 1507.97,418.571 1522.47,427.071 1541.5,428C 1550.17,428.333 1558.83,428.667 1567.5,429C 1576.84,432.345 1585.17,437.345 1592.5,444C 1613.14,455.299 1625.47,449.465 1629.5,426.5C 1628.7,421.931 1627.2,417.598 1625,413.5C 1599.69,387.195 1574.03,361.195 1548,335.5C 1542.38,327.825 1539.71,319.158 1540,309.5C 1482.7,333.986 1427.03,361.652 1373,392.5C 1376.73,373.188 1380.73,353.855 1385,334.5C 1392.96,307.371 1410.79,291.371 1438.5,286.5 Z"/></g>
<g><path style="opacity:0.987" fill="#f8ec22" d="M 1738.5,286.5 C 1812.51,286.188 1886.51,286.522 1960.5,287.5C 1956.83,306.165 1953.17,324.832 1949.5,343.5C 1893.46,343.021 1837.46,343.521 1781.5,345C 1772.76,347.404 1766.93,352.904 1764,361.5C 1757.7,386.685 1752.03,412.019 1747,437.5C 1744.82,453.315 1751.32,463.481 1766.5,468C 1818.5,468.5 1870.5,468.667 1922.5,468.5C 1918.96,487.527 1915.29,506.527 1911.5,525.5C 1845.86,526.653 1780.19,526.819 1714.5,526C 1683.99,524.019 1665.49,508.186 1659,478.5C 1658.33,470.833 1658.33,463.167 1659,455.5C 1667.03,414.032 1675.7,372.699 1685,331.5C 1693.75,305.561 1711.58,290.561 1738.5,286.5 Z"/></g>
<g><path style="opacity:0.99" fill="#f8ec22" d="M 2178.5,286.5 C 2211.5,286.333 2244.5,286.5 2277.5,287C 2231.12,325.711 2184.46,364.045 2137.5,402C 2135.77,403.389 2134.44,405.056 2133.5,407C 2164.68,446.012 2195.68,485.178 2226.5,524.5C 2224.92,525.298 2223.26,525.798 2221.5,526C 2206.5,526.167 2191.5,526.333 2176.5,526.5C 2160.44,526.645 2144.44,526.145 2128.5,525C 2124.08,522.588 2120.25,519.422 2117,515.5C 2101.81,495.8 2086.15,476.467 2070,457.5C 2064.78,462.526 2058.95,466.692 2052.5,470C 2042.84,478.147 2036.34,488.313 2033,500.5C 2031.34,507.437 2030.01,514.437 2029,521.5C 2028.53,522.931 2027.7,524.097 2026.5,525C 1998.9,526.474 1971.23,526.974 1943.5,526.5C 1959.78,447.088 1976.45,367.755 1993.5,288.5C 2021.83,287.5 2050.16,287.167 2078.5,287.5C 2072,318.827 2065.83,350.16 2060,381.5C 2097.11,351.692 2133.94,321.525 2170.5,291C 2173.1,289.205 2175.77,287.705 2178.5,286.5 Z"/></g>
<g><path style="opacity:0.992" fill="#f8ec22" d="M 2304.5,286.5 C 2367.83,286.333 2431.17,286.5 2494.5,287C 2525.78,288.288 2544.95,304.122 2552,334.5C 2552.89,356.165 2549.56,377.165 2542,397.5C 2538.34,403.981 2534.84,410.481 2531.5,417C 2534.88,441.624 2532.04,465.457 2523,488.5C 2514.26,507.576 2499.76,519.742 2479.5,525C 2440.69,526.142 2401.86,526.642 2363,526.5C 2325.48,526.488 2287.98,526.154 2250.5,525.5C 2266.81,447.134 2283.31,368.801 2300,290.5C 2301.4,288.93 2302.9,287.596 2304.5,286.5 Z M 2372.5,342.5 C 2399.84,342.333 2427.17,342.5 2454.5,343C 2462.4,342.43 2467.07,345.93 2468.5,353.5C 2467.43,360.465 2465.43,367.132 2462.5,373.5C 2460.97,374.861 2459.3,376.028 2457.5,377C 2453.47,377.303 2449.47,377.803 2445.5,378.5C 2418.85,377.721 2392.18,377.054 2365.5,376.5C 2367.58,365.109 2369.91,353.776 2372.5,342.5 Z M 2379.5,433.5 C 2400.88,433.057 2422.21,433.557 2443.5,435C 2447.61,436.797 2449.61,439.963 2449.5,444.5C 2448.74,451.483 2446.9,458.15 2444,464.5C 2440.49,467.722 2436.32,469.222 2431.5,469C 2403.17,469.5 2374.84,469.667 2346.5,469.5C 2347.96,458.698 2350.13,448.031 2353,437.5C 2354.25,436.789 2355.42,435.956 2356.5,435C 2364.34,434.829 2372.01,434.329 2379.5,433.5 Z"/></g>
<g><path style="opacity:0.989" fill="#f8ec22" d="M 2627.5,286.5 C 2702.17,286.5 2776.83,286.5 2851.5,286.5C 2848.45,303.25 2844.95,319.916 2841,336.5C 2840.49,338.521 2839.32,340.021 2837.5,341C 2784.23,342.814 2730.9,343.814 2677.5,344C 2659.63,347.869 2650.96,359.036 2651.5,377.5C 2702.5,377.5 2753.5,377.5 2804.5,377.5C 2801.32,394.555 2797.82,411.555 2794,428.5C 2792.83,429.667 2791.67,430.833 2790.5,432C 2776.23,433.282 2761.9,433.949 2747.5,434C 2713.5,434.333 2679.5,434.667 2645.5,435C 2639.42,434.69 2636.42,437.523 2636.5,443.5C 2637.58,456.867 2644.58,465.033 2657.5,468C 2709.5,468.5 2761.5,468.667 2813.5,468.5C 2809.73,487.166 2805.9,505.833 2802,524.5C 2800.6,525.227 2799.1,525.727 2797.5,526C 2733.17,526.667 2668.83,526.667 2604.5,526C 2568.51,522.514 2550.51,502.681 2550.5,466.5C 2550.35,458.398 2551.18,450.398 2553,442.5C 2560.54,405.806 2568.21,369.139 2576,332.5C 2584.58,307.41 2601.75,292.077 2627.5,286.5 Z"/></g>
<g><path style="opacity:0.994" fill="#f8ec22" d="M 2868.5,287.5 C 2957.5,287.333 3046.5,287.5 3135.5,288C 3131.5,306.333 3127.5,324.667 3123.5,343C 3093.83,343.333 3064.17,343.667 3034.5,344C 3033.5,344.833 3032.5,345.667 3031.5,346.5C 3018.5,405.817 3005.5,465.15 2992.5,524.5C 2965.17,525.5 2937.84,525.833 2910.5,525.5C 2922.83,464.833 2935.17,404.167 2947.5,343.5C 2917.5,343.5 2887.5,343.5 2857.5,343.5C 2860.65,324.727 2864.32,306.06 2868.5,287.5 Z"/></g>
</svg>
