<?xml version="1.0" encoding="UTF-8"?><svg id="Camada_2" xmlns="http://www.w3.org/2000/svg" viewBox="0 0 511.26 512"><defs><style>.cls-1{fill:#f9ee56;}.cls-2{fill:#2ab34b;}</style></defs><g id="Capa_1"><g><path class="cls-1" d="M404.27,317.17c-10.48-10.91-23.13-16.75-36.52-16.75s-26.04,5.73-36.96,16.64l-34.15,34.04c-2.81-1.51-5.62-2.92-8.32-4.32-3.89-1.95-7.56-3.78-10.7-5.73-31.99-20.32-61.05-46.79-88.93-81.05-13.51-17.07-22.58-31.45-29.18-46.03,8.86-8.1,17.07-16.53,25.07-24.64,3.03-3.03,6.05-6.16,9.08-9.19,22.69-22.69,22.69-52.09,0-74.78l-29.5-29.5c-3.35-3.35-6.81-6.81-10.05-10.27-6.48-6.7-13.29-13.62-20.32-20.1-10.48-10.37-23.02-15.88-36.2-15.88s-25.93,5.51-36.74,15.88l-.22,.22L23.89,82.78C10.06,96.61,2.17,113.47,.44,133.03c-2.59,31.55,6.7,60.95,13.83,80.18,17.51,47.22,43.66,90.99,82.67,137.89,47.33,56.52,104.28,101.15,169.33,132.59,24.85,11.78,58.03,25.72,95.09,28.1,2.27,.11,4.65,.22,6.81,.22,24.96,0,45.93-8.97,62.35-26.8,.11-.22,.32-.32,.43-.54,5.62-6.81,12.1-12.97,18.91-19.56,4.65-4.43,9.4-9.08,14.05-13.94,10.7-11.13,16.32-24.1,16.32-37.39s-5.73-26.26-16.64-37.06l-59.33-59.54Zm38.69,113.79c-.11,0-.11,.11,0,0-4.21,4.54-8.54,8.64-13.18,13.18-7.02,6.7-14.16,13.72-20.86,21.61-10.91,11.67-23.77,17.18-40.63,17.18-1.62,0-3.35,0-4.97-.11-32.09-2.05-61.92-14.59-84.29-25.29-61.16-29.61-114.87-71.64-159.5-124.92-36.85-44.41-61.49-85.48-77.8-129.57-10.05-26.91-13.72-47.87-12.1-67.65,1.08-12.64,5.94-23.13,14.91-32.09l36.85-36.85c5.29-4.97,10.91-7.67,16.43-7.67,6.81,0,12.32,4.11,15.78,7.56l.32,.32c6.59,6.16,12.86,12.54,19.45,19.34,3.35,3.46,6.81,6.92,10.27,10.48l29.5,29.5c11.45,11.45,11.45,22.04,0,33.5-3.13,3.13-6.16,6.27-9.29,9.29-9.08,9.29-17.72,17.94-27.12,26.37-.22,.22-.43,.32-.54,.54-9.29,9.29-7.56,18.37-5.62,24.53l.32,.97c7.67,18.59,18.48,36.09,34.9,56.95l.11,.11c29.82,36.74,61.27,65.38,95.96,87.31,4.43,2.81,8.97,5.08,13.29,7.24,3.89,1.95,7.56,3.78,10.7,5.73,.43,.22,.86,.54,1.3,.76,3.67,1.84,7.13,2.7,10.7,2.7,8.97,0,14.59-5.62,16.43-7.46l36.96-36.96c3.67-3.67,9.51-8.1,16.32-8.1s12.21,4.21,15.56,7.89l.22,.22,59.54,59.54c11.13,11.02,11.13,22.37,.11,33.82Z"/><path class="cls-2" d="M276.32,121.79c28.31,4.75,54.03,18.15,74.56,38.69s33.82,46.25,38.69,74.56c1.19,7.13,7.35,12.1,14.37,12.1,.86,0,1.62-.11,2.49-.22,8-1.3,13.29-8.86,11.99-16.86-5.84-34.26-22.04-65.49-46.79-90.23s-55.98-40.96-90.23-46.79c-8-1.3-15.45,4-16.86,11.89s3.78,15.56,11.78,16.86Z"/><path class="cls-1" d="M511.03,225.85c-9.62-56.41-36.2-107.74-77.05-148.58S341.81,9.84,285.4,.22c-7.89-1.4-15.34,4-16.75,11.89-1.3,8,4,15.45,11.99,16.86,50.36,8.54,96.28,32.42,132.81,68.83,36.52,36.52,60.3,82.45,68.83,132.81,1.19,7.13,7.35,12.1,14.37,12.1,.86,0,1.62-.11,2.49-.22,7.89-1.19,13.29-8.75,11.89-16.64Z"/></g></g></svg>